<?xml version="1.0" encoding="UTF-8"?><svg xmlns="http://www.w3.org/2000/svg" xmlns:xlink="http://www.w3.org/1999/xlink" contentScriptType="text/ecmascript" width="375pt" zoomAndPan="magnify" contentStyleType="text/css" viewBox="0 0 375 374.999991" height="374.999991pt" preserveAspectRatio="xMidYMid meet" version="1.2"><defs><g/><clipPath xml:id="clip1" id="clip1"><path d="M 182.265625 256.234375 L 196.964844 256.234375 L 196.964844 260.710938 L 182.265625 260.710938 Z M 182.265625 256.234375 "/></clipPath><clipPath xml:id="clip2" id="clip2"><path d="M 223 191.722656 L 248 191.722656 L 248 205 L 223 205 Z M 223 191.722656 "/></clipPath><clipPath xml:id="clip3" id="clip3"><path d="M 228.757812 220.09375 L 262.390625 220.09375 L 262.390625 230.933594 L 228.757812 230.933594 Z M 228.757812 220.09375 "/></clipPath><clipPath xml:id="clip4" id="clip4"><path d="M 112.5 214 L 148 214 L 148 234 L 112.5 234 Z M 112.5 214 "/></clipPath><clipPath xml:id="clip5" id="clip5"><path d="M 127 191.722656 L 174 191.722656 L 174 206 L 127 206 Z M 127 191.722656 "/></clipPath><clipPath xml:id="clip6" id="clip6"><path d="M 112.5 191.722656 L 129 191.722656 L 129 216 L 112.5 216 Z M 112.5 191.722656 "/></clipPath><clipPath xml:id="clip7" id="clip7"><path d="M 246 191.78125 L 262.390625 191.78125 L 262.390625 221.296875 L 246 221.296875 Z M 246 191.78125 "/></clipPath></defs><g xml:id="surface1" id="surface1"><g clip-rule="nonzero" clip-path="url(#clip1)"><path style=" stroke:none;fill-rule:nonzero;fill:rgb(94.119263%,44.309998%,40.388489%);fill-opacity:1;" d="M 189.980469 260.710938 C 189.589844 260.710938 189.191406 260.652344 188.78125 260.519531 C 187.773438 260.183594 186.722656 259.472656 185.703125 258.789062 C 185.035156 258.339844 184.40625 257.914062 183.8125 257.605469 C 183.519531 257.449219 183.171875 257.289062 182.78125 257.128906 C 182.550781 257.035156 182.4375 256.773438 182.535156 256.539062 C 182.628906 256.308594 182.890625 256.199219 183.121094 256.292969 C 183.539062 256.464844 183.914062 256.636719 184.226562 256.804688 C 184.863281 257.132812 185.546875 257.59375 186.207031 258.039062 C 187.171875 258.691406 188.171875 259.363281 189.0625 259.660156 C 190.488281 260.132812 191.84375 259.382812 193.273438 258.589844 C 194.226562 258.0625 195.210938 257.515625 196.285156 257.289062 C 196.527344 257.238281 196.765625 257.394531 196.816406 257.636719 C 196.871094 257.882812 196.714844 258.121094 196.472656 258.171875 C 195.527344 258.375 194.601562 258.886719 193.707031 259.378906 C 192.519531 260.039062 191.304688 260.710938 189.980469 260.710938 "/></g><path style=" stroke:none;fill-rule:nonzero;fill:rgb(94.119263%,44.309998%,40.388489%);fill-opacity:1;" d="M 197.425781 258.414062 C 197.003906 258.414062 196.609375 258.324219 196.199219 258.144531 C 195.6875 257.921875 195.167969 257.570312 194.550781 257.105469 C 190.957031 254.421875 186.921875 251.988281 183.359375 249.84375 C 183.148438 249.714844 183.078125 249.4375 183.207031 249.222656 C 183.332031 249.007812 183.609375 248.941406 183.824219 249.070312 C 187.402344 251.226562 191.457031 253.667969 195.089844 256.382812 C 195.582031 256.75 196.097656 257.117188 196.558594 257.316406 C 197.25 257.617188 197.90625 257.636719 199.375 256.898438 C 201.117188 256.019531 202.957031 254.824219 204.296875 253.699219 C 204.488281 253.539062 204.773438 253.5625 204.929688 253.753906 C 205.089844 253.945312 205.066406 254.230469 204.875 254.390625 C 203.484375 255.558594 201.582031 256.800781 199.777344 257.707031 C 198.828125 258.183594 198.097656 258.414062 197.425781 258.414062 "/><path style=" stroke:none;fill-rule:nonzero;fill:rgb(94.119263%,44.309998%,40.388489%);fill-opacity:1;" d="M 206.707031 254.8125 C 205.945312 254.8125 205.179688 254.703125 204.453125 254.476562 C 203.855469 254.296875 203.320312 254.039062 202.859375 253.714844 C 201.359375 252.648438 199.960938 251.042969 198.476562 249.339844 C 196.167969 246.691406 193.78125 243.949219 190.976562 243.324219 C 190.734375 243.269531 190.582031 243.027344 190.636719 242.785156 C 190.6875 242.539062 190.929688 242.386719 191.171875 242.441406 C 194.265625 243.132812 196.75 245.984375 199.15625 248.746094 C 200.601562 250.40625 201.964844 251.972656 203.378906 252.976562 C 203.757812 253.242188 204.207031 253.457031 204.714844 253.613281 C 206.492188 254.167969 208.628906 253.917969 210.035156 252.996094 C 210.246094 252.859375 210.523438 252.917969 210.660156 253.125 C 210.796875 253.335938 210.738281 253.613281 210.527344 253.75 C 209.464844 254.449219 208.09375 254.8125 206.707031 254.8125 "/><path style=" stroke:none;fill-rule:nonzero;fill:rgb(94.119263%,44.309998%,40.388489%);fill-opacity:1;" d="M 210.25 253.898438 C 210.171875 253.898438 210.089844 253.878906 210.019531 253.835938 C 209.804688 253.707031 209.738281 253.429688 209.863281 253.214844 C 209.867188 253.207031 209.871094 253.191406 209.875 253.179688 C 211.167969 250.402344 211.246094 250.234375 209.519531 247.949219 L 209.339844 247.714844 C 208.035156 246.007812 206.574219 244.390625 205.183594 242.898438 C 204.984375 242.683594 204.765625 242.453125 204.53125 242.207031 C 202.605469 240.179688 199.964844 237.402344 200.175781 234.90625 C 200.199219 234.65625 200.417969 234.472656 200.664062 234.496094 C 200.910156 234.515625 201.09375 234.734375 201.074219 234.984375 C 200.894531 237.070312 203.476562 239.789062 205.183594 241.582031 C 205.417969 241.832031 205.640625 242.066406 205.839844 242.28125 C 207.246094 243.792969 208.726562 245.429688 210.054688 247.167969 L 210.234375 247.402344 C 212.234375 250.046875 212.0625 250.613281 210.691406 253.5625 C 210.679688 253.59375 210.660156 253.640625 210.636719 253.679688 C 210.550781 253.820312 210.402344 253.898438 210.25 253.898438 "/><path style=" stroke:none;fill-rule:nonzero;fill:rgb(94.119263%,44.309998%,40.388489%);fill-opacity:1;" d="M 216.191406 244.066406 C 216.136719 244.066406 216.082031 244.054688 216.027344 244.035156 C 215.652344 243.890625 215.292969 243.722656 214.933594 243.527344 C 213.519531 242.773438 212.167969 241.6875 210.855469 240.636719 C 209.660156 239.671875 208.527344 238.765625 207.464844 238.203125 C 207.285156 238.109375 207.042969 237.976562 206.757812 237.816406 C 205.300781 237.007812 202.265625 235.332031 200.644531 235.398438 C 200.386719 235.417969 200.1875 235.214844 200.175781 234.964844 C 200.164062 234.714844 200.355469 234.503906 200.605469 234.492188 C 202.476562 234.40625 205.546875 236.113281 207.195312 237.027344 C 207.472656 237.179688 207.703125 237.3125 207.882812 237.40625 C 209.019531 238.003906 210.1875 238.9375 211.417969 239.929688 C 212.695312 240.957031 214.015625 242.015625 215.359375 242.730469 C 215.6875 242.910156 216.011719 243.058594 216.351562 243.191406 C 216.585938 243.28125 216.699219 243.542969 216.609375 243.777344 C 216.542969 243.957031 216.371094 244.066406 216.191406 244.066406 "/><path style=" stroke:none;fill-rule:nonzero;fill:rgb(94.119263%,44.309998%,40.388489%);fill-opacity:1;" d="M 209.699219 247.894531 C 209.546875 247.894531 209.398438 247.816406 209.3125 247.675781 C 209.183594 247.460938 209.253906 247.183594 209.464844 247.054688 C 210.179688 246.625 210.96875 246.070312 211.816406 245.410156 C 212.792969 244.636719 213.839844 243.734375 214.839844 242.800781 C 215.019531 242.632812 215.308594 242.632812 215.476562 242.808594 C 215.648438 242.988281 215.652344 243.261719 215.480469 243.433594 C 215.476562 243.441406 215.457031 243.457031 215.453125 243.460938 C 214.4375 244.414062 213.371094 245.332031 212.371094 246.121094 C 211.496094 246.804688 210.675781 247.378906 209.929688 247.828125 C 209.859375 247.871094 209.777344 247.894531 209.699219 247.894531 "/><path style=" stroke:none;fill-rule:nonzero;fill:rgb(94.119263%,44.309998%,40.388489%);fill-opacity:1;" d="M 214.214844 246.609375 C 213.425781 246.609375 212.691406 246.484375 211.929688 246.1875 C 211.699219 246.09375 211.582031 245.832031 211.675781 245.601562 C 211.765625 245.367188 212.027344 245.253906 212.257812 245.34375 C 213.734375 245.921875 215.113281 245.761719 217.296875 245.230469 C 217.777344 245.117188 218.332031 245.058594 218.921875 244.996094 C 219.957031 244.886719 221.023438 244.777344 221.628906 244.339844 C 222.6875 243.582031 223.011719 241.875 222.601562 239.265625 C 222.488281 238.558594 222.328125 237.796875 222.101562 236.933594 C 222.039062 236.691406 222.183594 236.445312 222.421875 236.382812 C 222.660156 236.320312 222.910156 236.460938 222.972656 236.703125 C 223.203125 237.59375 223.375 238.386719 223.492188 239.125 C 223.960938 242.097656 223.511719 244.101562 222.152344 245.074219 C 221.355469 245.648438 220.164062 245.773438 219.015625 245.894531 C 218.457031 245.953125 217.929688 246.007812 217.507812 246.109375 C 216.234375 246.417969 215.183594 246.609375 214.214844 246.609375 "/><path style=" stroke:none;fill-rule:nonzero;fill:rgb(94.119263%,44.309998%,40.388489%);fill-opacity:1;" d="M 222.535156 237.269531 C 222.453125 237.269531 222.371094 237.246094 222.296875 237.199219 L 221.59375 236.753906 C 219.691406 235.539062 217.894531 234.394531 216.375 233.132812 C 207.742188 225.992188 198.566406 220.0625 190.730469 215.207031 C 188.550781 213.855469 186.648438 213.199219 184.46875 212.625 C 183.808594 212.449219 183.050781 212.128906 182.246094 211.789062 C 181.515625 211.480469 180.761719 211.160156 180.058594 210.941406 C 179.820312 210.867188 179.6875 210.617188 179.761719 210.378906 C 179.835938 210.140625 180.085938 210.007812 180.324219 210.078125 C 181.070312 210.3125 181.84375 210.640625 182.59375 210.957031 C 183.371094 211.28125 184.101562 211.589844 184.699219 211.75 C 186.957031 212.34375 188.929688 213.027344 191.203125 214.4375 C 199.066406 219.3125 208.273438 225.257812 216.949219 232.433594 C 218.425781 233.664062 220.199219 234.792969 222.078125 235.992188 L 222.777344 236.4375 C 222.988281 236.570312 223.050781 236.851562 222.917969 237.0625 C 222.832031 237.195312 222.683594 237.269531 222.535156 237.269531 "/><path style=" stroke:none;fill-rule:nonzero;fill:rgb(94.119263%,44.309998%,40.388489%);fill-opacity:1;" d="M 223.046875 239.648438 C 222.957031 239.648438 222.863281 239.621094 222.785156 239.5625 C 222.582031 239.417969 222.535156 239.136719 222.679688 238.933594 C 223.019531 238.453125 223.417969 238.003906 223.898438 237.566406 C 224.402344 237.097656 224.949219 236.679688 225.476562 236.273438 C 226.34375 235.605469 227.164062 234.972656 227.8125 234.15625 C 228.632812 233.117188 228.804688 231.585938 228.863281 230.367188 C 228.894531 229.75 228.898438 229.101562 228.898438 228.476562 C 228.90625 227.085938 228.910156 225.652344 229.222656 224.453125 C 229.289062 224.210938 229.535156 224.066406 229.773438 224.128906 C 230.015625 224.191406 230.160156 224.441406 230.09375 224.679688 C 229.8125 225.769531 229.804688 227.085938 229.800781 228.480469 C 229.796875 229.117188 229.792969 229.773438 229.761719 230.410156 C 229.699219 231.765625 229.496094 233.480469 228.515625 234.71875 C 227.800781 235.621094 226.894531 236.320312 226.023438 236.992188 C 225.511719 237.386719 224.984375 237.792969 224.507812 238.230469 C 224.074219 238.628906 223.714844 239.027344 223.414062 239.457031 C 223.328125 239.582031 223.1875 239.648438 223.046875 239.648438 "/><g clip-rule="nonzero" clip-path="url(#clip2)"><path style=" stroke:none;fill-rule:nonzero;fill:rgb(94.119263%,44.309998%,40.388489%);fill-opacity:1;" d="M 224.167969 204.140625 C 223.976562 204.140625 223.800781 204.015625 223.738281 203.824219 C 223.664062 203.585938 223.796875 203.332031 224.03125 203.257812 C 225.382812 202.824219 226.5625 202.390625 227.640625 201.929688 C 234.613281 198.949219 241.003906 195.171875 246.339844 191.871094 C 246.550781 191.742188 246.828125 191.808594 246.960938 192.019531 C 247.089844 192.230469 247.023438 192.511719 246.8125 192.640625 C 241.449219 195.960938 235.019531 199.757812 227.992188 202.761719 C 226.890625 203.230469 225.683594 203.675781 224.304688 204.117188 C 224.261719 204.132812 224.214844 204.140625 224.167969 204.140625 "/></g><g clip-rule="nonzero" clip-path="url(#clip3)"><path style=" stroke:none;fill-rule:nonzero;fill:rgb(94.119263%,44.309998%,40.388489%);fill-opacity:1;" d="M 229.3125 230.839844 C 229.160156 230.839844 229.011719 230.761719 228.925781 230.621094 C 228.800781 230.40625 228.871094 230.128906 229.082031 230 C 230.195312 229.339844 231.355469 228.789062 232.125 228.425781 L 232.226562 228.375 C 233.570312 227.738281 234.964844 227.445312 236.3125 227.164062 C 236.8125 227.0625 237.328125 226.957031 237.835938 226.832031 C 238.96875 226.558594 240.105469 226.289062 241.242188 226.019531 C 248.0625 224.394531 255.113281 222.714844 261.792969 220.375 C 262.027344 220.292969 262.285156 220.414062 262.367188 220.652344 C 262.449219 220.886719 262.324219 221.144531 262.089844 221.226562 C 255.363281 223.582031 248.292969 225.269531 241.449219 226.898438 C 240.3125 227.167969 239.179688 227.4375 238.046875 227.710938 C 237.527344 227.835938 237.003906 227.945312 236.496094 228.050781 C 235.140625 228.332031 233.855469 228.601562 232.613281 229.191406 L 232.507812 229.242188 C 231.753906 229.597656 230.617188 230.136719 229.542969 230.777344 C 229.472656 230.820312 229.390625 230.839844 229.3125 230.839844 "/></g><path style=" stroke:none;fill-rule:nonzero;fill:rgb(94.119263%,44.309998%,40.388489%);fill-opacity:1;" d="M 216.546875 203.085938 C 216.410156 203.085938 216.273438 203.027344 216.1875 202.90625 C 216.039062 202.707031 216.074219 202.425781 216.273438 202.273438 C 217.113281 201.640625 219.757812 199.445312 218.640625 197.8125 C 218.402344 197.46875 217.941406 197.28125 217.203125 197.21875 C 216.953125 197.199219 216.769531 196.980469 216.789062 196.734375 C 216.808594 196.484375 217.03125 196.300781 217.273438 196.320312 C 218.289062 196.402344 218.976562 196.722656 219.378906 197.300781 C 220.457031 198.871094 219.519531 200.949219 216.816406 202.996094 C 216.734375 203.058594 216.640625 203.085938 216.546875 203.085938 "/><path style=" stroke:none;fill-rule:nonzero;fill:rgb(94.119263%,44.309998%,40.388489%);fill-opacity:1;" d="M 161.238281 220.039062 C 159.476562 220.039062 157.523438 219.703125 156.296875 218.691406 C 156.023438 218.46875 155.792969 218.214844 155.601562 217.9375 C 155.460938 217.730469 155.515625 217.449219 155.71875 217.308594 C 155.921875 217.167969 156.203125 217.21875 156.34375 217.425781 C 156.484375 217.632812 156.664062 217.824219 156.867188 217.996094 C 158.425781 219.277344 161.765625 219.300781 163.640625 218.90625 C 166.414062 218.328125 168.339844 217.054688 170.753906 215.324219 C 173.234375 213.539062 176.171875 211.878906 180.003906 210.101562 C 180.226562 209.996094 180.496094 210.09375 180.601562 210.320312 C 180.703125 210.546875 180.605469 210.816406 180.378906 210.921875 C 176.605469 212.675781 173.710938 214.308594 171.277344 216.058594 C 168.773438 217.855469 166.769531 219.175781 163.824219 219.792969 C 163.121094 219.9375 162.210938 220.039062 161.238281 220.039062 "/><path style=" stroke:none;fill-rule:nonzero;fill:rgb(94.119263%,44.309998%,40.388489%);fill-opacity:1;" d="M 224.167969 204.140625 C 224.160156 204.140625 224.15625 204.140625 224.148438 204.140625 C 222.023438 204.03125 220.0625 203.808594 218.160156 203.449219 C 217.636719 203.351562 217.074219 203.226562 216.4375 203.074219 C 216.1875 203.015625 215.929688 202.953125 215.675781 202.890625 C 214.714844 202.660156 213.722656 202.421875 212.726562 202.265625 C 205.929688 201.183594 198.847656 200.460938 191.683594 200.113281 C 190.417969 200.050781 189.132812 199.925781 187.890625 199.800781 L 187.625 199.773438 C 185.855469 199.597656 184.015625 199.421875 182.253906 199.417969 C 180.359375 199.425781 178.460938 199.917969 176.832031 200.382812 C 176.597656 200.453125 176.347656 200.3125 176.277344 200.074219 C 176.210938 199.832031 176.347656 199.582031 176.585938 199.515625 C 178.273438 199.035156 180.242188 198.519531 182.25 198.515625 C 184.066406 198.515625 185.921875 198.699219 187.714844 198.875 L 187.980469 198.902344 C 189.210938 199.023438 190.484375 199.152344 191.726562 199.210938 C 198.921875 199.558594 206.035156 200.285156 212.867188 201.371094 C 213.898438 201.535156 214.90625 201.777344 215.882812 202.011719 C 216.140625 202.074219 216.394531 202.136719 216.648438 202.195312 C 217.269531 202.347656 217.816406 202.464844 218.328125 202.5625 C 220.191406 202.910156 222.109375 203.132812 224.191406 203.238281 C 224.4375 203.25 224.628906 203.460938 224.617188 203.710938 C 224.605469 203.953125 224.40625 204.140625 224.167969 204.140625 "/><path style=" stroke:none;fill-rule:nonzero;fill:rgb(94.119263%,44.309998%,40.388489%);fill-opacity:1;" d="M 187.703125 199.78125 C 187.53125 199.78125 187.367188 199.679688 187.292969 199.511719 C 187.191406 199.285156 187.292969 199.015625 187.519531 198.917969 C 188.789062 198.351562 189.871094 198.003906 190.929688 197.820312 C 193.265625 197.421875 195.746094 197.484375 198.144531 197.542969 C 198.976562 197.5625 199.835938 197.582031 200.664062 197.582031 C 201.386719 197.582031 202.28125 197.613281 203.3125 197.65625 C 207.386719 197.808594 213.542969 198.042969 217.042969 196.363281 C 217.265625 196.253906 217.535156 196.351562 217.644531 196.574219 C 217.75 196.800781 217.65625 197.070312 217.429688 197.175781 C 213.730469 198.953125 207.441406 198.714844 203.277344 198.558594 C 202.253906 198.519531 201.367188 198.484375 200.664062 198.484375 C 199.824219 198.484375 198.960938 198.464844 198.125 198.445312 C 195.769531 198.386719 193.332031 198.328125 191.078125 198.710938 C 190.082031 198.882812 189.097656 199.199219 187.886719 199.742188 C 187.824219 199.769531 187.761719 199.78125 187.703125 199.78125 "/><path style=" stroke:none;fill-rule:nonzero;fill:rgb(94.119263%,44.309998%,40.388489%);fill-opacity:1;" d="M 156.730469 243.210938 C 156.644531 243.210938 156.558594 243.1875 156.480469 243.132812 C 155.546875 242.503906 154.660156 241.765625 153.804688 241.054688 C 153.515625 240.816406 153.226562 240.578125 152.941406 240.34375 C 152.777344 240.207031 152.613281 240.078125 152.445312 239.949219 C 152.25 239.796875 152.214844 239.511719 152.367188 239.316406 C 152.519531 239.121094 152.800781 239.085938 153 239.238281 C 153.171875 239.371094 153.34375 239.507812 153.511719 239.644531 C 153.796875 239.875 154.085938 240.117188 154.375 240.359375 C 155.21875 241.058594 156.089844 241.777344 156.984375 242.386719 C 157.1875 242.523438 157.242188 242.804688 157.105469 243.011719 C 157.015625 243.140625 156.875 243.210938 156.730469 243.210938 "/><path style=" stroke:none;fill-rule:nonzero;fill:rgb(94.119263%,44.309998%,40.388489%);fill-opacity:1;" d="M 151.816406 242.082031 C 151.777344 242.082031 151.738281 242.078125 151.699219 242.070312 C 147.921875 241.042969 147.492188 238.460938 147.035156 235.722656 C 146.902344 234.929688 146.765625 234.105469 146.542969 233.289062 C 146.40625 232.777344 146.238281 232.296875 146.042969 231.859375 C 145.945312 231.632812 146.042969 231.367188 146.273438 231.261719 C 146.5 231.164062 146.765625 231.261719 146.867188 231.492188 C 147.082031 231.972656 147.265625 232.5 147.410156 233.054688 C 147.644531 233.910156 147.785156 234.757812 147.921875 235.574219 C 148.363281 238.226562 148.714844 240.320312 151.933594 241.195312 C 152.171875 241.261719 152.316406 241.507812 152.25 241.75 C 152.195312 241.953125 152.015625 242.082031 151.816406 242.082031 "/><path style=" stroke:none;fill-rule:nonzero;fill:rgb(94.119263%,44.309998%,40.388489%);fill-opacity:1;" d="M 152.488281 241.453125 C 152.484375 241.453125 152.480469 241.453125 152.476562 241.453125 C 152.230469 241.449219 152.03125 241.242188 152.039062 240.992188 C 152.109375 238.140625 151.214844 235.191406 149.710938 233.300781 C 148.898438 232.28125 147.613281 231.457031 146.703125 232.054688 C 146.601562 232.117188 146.515625 232.191406 146.429688 232.285156 C 146.261719 232.46875 145.976562 232.476562 145.792969 232.308594 C 145.613281 232.140625 145.601562 231.855469 145.769531 231.671875 C 145.910156 231.519531 146.054688 231.398438 146.214844 231.292969 C 147.597656 230.386719 149.320312 231.363281 150.414062 232.738281 C 152.042969 234.789062 153.011719 237.957031 152.9375 241.015625 C 152.933594 241.257812 152.730469 241.453125 152.488281 241.453125 "/><path style=" stroke:none;fill-rule:nonzero;fill:rgb(94.119263%,44.309998%,40.388489%);fill-opacity:1;" d="M 155.972656 218.132812 C 155.929688 218.132812 155.886719 218.128906 155.839844 218.113281 C 155.601562 218.039062 155.46875 217.785156 155.542969 217.546875 C 155.566406 217.46875 155.601562 217.386719 155.640625 217.308594 C 156.113281 216.335938 156.816406 216.089844 157.492188 215.855469 C 157.777344 215.753906 158.074219 215.652344 158.359375 215.484375 C 159.691406 214.722656 160.90625 213.636719 162.082031 212.589844 C 162.707031 212.035156 163.355469 211.457031 164.019531 210.925781 C 166.039062 209.308594 167.945312 207.457031 169.792969 205.667969 C 170.660156 204.824219 171.5625 203.949219 172.460938 203.113281 C 172.464844 203.109375 172.484375 203.09375 172.5 203.078125 C 172.503906 203.074219 172.519531 203.058594 172.523438 203.054688 C 173.867188 201.8125 175.140625 200.6875 176.421875 199.601562 C 176.609375 199.445312 176.894531 199.46875 177.054688 199.660156 C 177.214844 199.847656 177.191406 200.132812 177 200.296875 C 175.730469 201.367188 174.464844 202.488281 173.132812 203.71875 C 173.132812 203.722656 173.113281 203.738281 173.097656 203.753906 C 173.09375 203.757812 173.078125 203.769531 173.074219 203.773438 C 172.179688 204.605469 171.285156 205.476562 170.417969 206.316406 C 168.558594 208.121094 166.632812 209.988281 164.578125 211.632812 C 163.933594 212.152344 163.296875 212.71875 162.679688 213.265625 C 161.46875 214.34375 160.21875 215.457031 158.804688 216.269531 C 158.449219 216.476562 158.097656 216.597656 157.789062 216.707031 C 157.191406 216.917969 156.757812 217.066406 156.449219 217.707031 C 156.429688 217.742188 156.414062 217.777344 156.402344 217.816406 C 156.34375 218.007812 156.164062 218.132812 155.972656 218.132812 "/><g clip-rule="nonzero" clip-path="url(#clip4)"><path style=" stroke:none;fill-rule:nonzero;fill:rgb(94.119263%,44.309998%,40.388489%);fill-opacity:1;" d="M 146.976562 233.621094 C 146.816406 233.621094 146.664062 233.539062 146.582031 233.390625 C 146.371094 233.011719 146.097656 232.640625 145.769531 232.285156 C 144.414062 230.832031 142.332031 229.820312 140.492188 228.921875 C 140.210938 228.785156 139.933594 228.652344 139.671875 228.519531 C 134.785156 226.09375 129.929688 223.460938 125.375 220.972656 C 121.46875 218.835938 117.300781 217.207031 113.273438 215.632812 L 112.964844 215.511719 C 112.730469 215.421875 112.617188 215.15625 112.707031 214.925781 C 112.796875 214.691406 113.058594 214.578125 113.289062 214.667969 L 113.601562 214.789062 C 117.65625 216.375 121.847656 218.015625 125.808594 220.175781 C 130.351562 222.664062 135.199219 225.292969 140.070312 227.710938 C 140.332031 227.84375 140.605469 227.976562 140.882812 228.109375 C 142.792969 229.039062 144.957031 230.09375 146.429688 231.667969 C 146.808594 232.082031 147.121094 232.511719 147.367188 232.949219 C 147.488281 233.167969 147.410156 233.441406 147.195312 233.5625 C 147.125 233.601562 147.050781 233.621094 146.976562 233.621094 "/></g><g clip-rule="nonzero" clip-path="url(#clip5)"><path style=" stroke:none;fill-rule:nonzero;fill:rgb(94.119263%,44.309998%,40.388489%);fill-opacity:1;" d="M 159.347656 205.300781 C 157.761719 205.300781 156.160156 205.152344 154.546875 204.761719 C 151.746094 204.078125 148.90625 203.183594 146.5 202.398438 C 144.464844 201.734375 142.695312 200.679688 140.984375 199.660156 C 140.019531 199.085938 139.019531 198.488281 137.972656 197.960938 L 136.875 197.410156 C 133.875 195.90625 130.773438 194.351562 127.820312 192.625 C 127.605469 192.496094 127.53125 192.222656 127.660156 192.003906 C 127.785156 191.789062 128.058594 191.71875 128.273438 191.84375 C 131.203125 193.558594 134.289062 195.105469 137.277344 196.601562 L 138.375 197.15625 C 139.449219 197.695312 140.464844 198.296875 141.445312 198.882812 C 143.191406 199.921875 144.839844 200.90625 146.777344 201.539062 C 149.167969 202.316406 151.988281 203.207031 154.761719 203.882812 C 158.722656 204.847656 162.511719 204.285156 166.523438 203.691406 C 168.550781 203.390625 170.648438 203.082031 172.75 202.992188 C 173.003906 202.980469 173.207031 203.175781 173.21875 203.421875 C 173.230469 203.671875 173.035156 203.882812 172.789062 203.894531 C 170.734375 203.980469 168.660156 204.289062 166.65625 204.585938 C 164.265625 204.941406 161.824219 205.300781 159.347656 205.300781 "/></g><g clip-rule="nonzero" clip-path="url(#clip6)"><path style=" stroke:none;fill-rule:nonzero;fill:rgb(94.119263%,44.309998%,40.388489%);fill-opacity:1;" d="M 113.128906 215.542969 C 113.085938 215.542969 113.042969 215.535156 113 215.523438 C 112.761719 215.453125 112.625 215.203125 112.695312 214.960938 C 115.289062 206.109375 121.0625 197.265625 127.765625 191.878906 C 127.960938 191.722656 128.242188 191.757812 128.398438 191.953125 C 128.554688 192.144531 128.523438 192.429688 128.328125 192.585938 C 121.761719 197.859375 116.101562 206.53125 113.558594 215.21875 C 113.5 215.414062 113.320312 215.542969 113.128906 215.542969 "/></g><g clip-rule="nonzero" clip-path="url(#clip7)"><path style=" stroke:none;fill-rule:nonzero;fill:rgb(94.119263%,44.309998%,40.388489%);fill-opacity:1;" d="M 261.941406 221.25 C 261.734375 221.25 261.546875 221.105469 261.5 220.898438 C 260.402344 215.8125 258.960938 210.351562 255.839844 204.851562 C 252.808594 199.503906 249.863281 195.722656 246.28125 192.597656 C 246.09375 192.433594 246.074219 192.148438 246.238281 191.960938 C 246.398438 191.773438 246.683594 191.75 246.871094 191.917969 C 250.53125 195.113281 253.539062 198.964844 256.621094 204.402344 C 259.800781 210.011719 261.269531 215.550781 262.382812 220.703125 C 262.433594 220.949219 262.277344 221.1875 262.035156 221.242188 C 262.003906 221.25 261.972656 221.25 261.941406 221.25 "/></g><path style=" stroke:none;fill-rule:nonzero;fill:rgb(94.119263%,44.309998%,40.388489%);fill-opacity:1;" d="M 151.816406 242.082031 C 151.65625 242.082031 151.503906 242 151.421875 241.851562 C 151.300781 241.632812 151.378906 241.359375 151.597656 241.238281 C 152.085938 240.964844 152.417969 240.492188 152.832031 239.769531 C 152.957031 239.550781 153.230469 239.476562 153.445312 239.601562 C 153.664062 239.726562 153.738281 240 153.613281 240.21875 C 153.222656 240.90625 152.777344 241.613281 152.035156 242.027344 C 151.964844 242.066406 151.890625 242.082031 151.816406 242.082031 "/><path style=" stroke:none;fill-rule:nonzero;fill:rgb(94.119263%,44.309998%,40.388489%);fill-opacity:1;" d="M 169.332031 256.503906 C 168.878906 256.503906 168.492188 256.410156 168.160156 256.214844 C 167.882812 256.054688 167.699219 255.828125 167.535156 255.628906 C 167.347656 255.386719 167.144531 255.160156 166.929688 254.917969 C 166.109375 253.996094 165.183594 252.949219 165.277344 251.675781 C 165.289062 251.488281 165.324219 251.304688 165.390625 251.117188 C 165.714844 250.085938 166.097656 249.113281 166.425781 248.296875 L 166.671875 247.6875 C 166.972656 246.960938 167.277344 246.207031 167.5625 245.449219 C 168.035156 244.199219 168.070312 242.941406 168.070312 241.542969 C 168.070312 241.292969 168.273438 241.09375 168.523438 241.09375 C 168.769531 241.09375 168.972656 241.292969 168.972656 241.542969 C 168.972656 243.03125 168.929688 244.375 168.40625 245.769531 C 168.117188 246.539062 167.804688 247.296875 167.507812 248.03125 L 167.257812 248.636719 C 166.9375 249.433594 166.5625 250.390625 166.242188 251.402344 C 166.203125 251.519531 166.179688 251.625 166.175781 251.738281 C 166.109375 252.632812 166.902344 253.527344 167.601562 254.316406 C 167.828125 254.570312 168.039062 254.808594 168.226562 255.046875 C 168.359375 255.210938 168.480469 255.355469 168.609375 255.4375 C 169.160156 255.75 170.425781 255.761719 173.316406 254 C 173.527344 253.871094 173.804688 253.941406 173.933594 254.152344 C 174.0625 254.367188 173.996094 254.644531 173.78125 254.773438 C 171.875 255.9375 170.421875 256.503906 169.332031 256.503906 "/><path style=" stroke:none;fill-rule:nonzero;fill:rgb(94.119263%,44.309998%,40.388489%);fill-opacity:1;" d="M 175.5 248.121094 C 175.25 248.121094 175.050781 247.921875 175.050781 247.671875 L 175.050781 247.375 C 175.046875 247.171875 175.046875 246.972656 175.050781 246.773438 C 175.050781 246.628906 175.050781 246.464844 175.042969 246.296875 C 174.925781 243.820312 173.796875 240.660156 171.9375 239.675781 C 171.761719 239.578125 171.585938 239.503906 171.390625 239.445312 C 171 239.332031 170.644531 239.648438 170.183594 240.109375 L 170.097656 240.195312 C 169.8125 240.480469 169.585938 240.816406 169.34375 241.167969 C 169.203125 241.378906 169.054688 241.59375 168.890625 241.804688 C 168.878906 241.820312 168.867188 241.835938 168.855469 241.847656 C 168.679688 242.023438 168.390625 242.03125 168.214844 241.859375 C 168.039062 241.683594 168.027344 241.410156 168.195312 241.230469 C 168.335938 241.046875 168.464844 240.859375 168.601562 240.660156 C 168.855469 240.289062 169.117188 239.902344 169.460938 239.558594 L 169.546875 239.472656 C 170.011719 239.007812 170.710938 238.304688 171.644531 238.578125 C 171.90625 238.65625 172.140625 238.753906 172.367188 238.878906 C 174.789062 240.167969 175.832031 243.992188 175.941406 246.25 C 175.949219 246.433594 175.949219 246.613281 175.949219 246.777344 C 175.945312 246.980469 175.949219 247.175781 175.949219 247.367188 L 175.949219 247.671875 C 175.949219 247.921875 175.75 248.121094 175.5 248.121094 "/><path style=" stroke:none;fill-rule:nonzero;fill:rgb(94.119263%,44.309998%,40.388489%);fill-opacity:1;" d="M 164.847656 252.480469 C 164.796875 252.480469 164.75 252.472656 164.703125 252.457031 L 164.660156 252.445312 C 163.992188 252.214844 163.296875 252.089844 162.621094 251.96875 L 162.371094 251.925781 C 161.574219 251.78125 160.914062 251.628906 160.269531 251.363281 C 159.46875 251.03125 158.824219 250.550781 158.300781 249.894531 C 157.589844 249.011719 156.980469 247.894531 156.535156 246.660156 C 156.535156 246.65625 156.535156 246.648438 156.53125 246.644531 C 156.355469 246.179688 156.210938 245.699219 156.097656 245.214844 C 155.917969 244.464844 156.289062 243.613281 156.6875 242.804688 L 156.84375 242.492188 C 157.25 241.640625 157.652344 240.773438 158.054688 239.910156 C 158.441406 239.074219 158.828125 238.238281 159.226562 237.40625 C 159.730469 236.355469 160.328125 234.964844 160.492188 233.527344 C 160.492188 233.515625 160.496094 233.5 160.496094 233.496094 C 160.496094 233.242188 160.699219 233.050781 160.945312 233.050781 C 161.195312 233.050781 161.394531 233.261719 161.394531 233.511719 C 161.394531 233.542969 161.390625 233.574219 161.390625 233.601562 C 161.210938 235.199219 160.570312 236.683594 160.035156 237.800781 C 159.640625 238.625 159.253906 239.457031 158.871094 240.289062 C 158.464844 241.160156 158.066406 242.027344 157.652344 242.890625 L 157.492188 243.203125 C 157.253906 243.691406 156.855469 244.507812 156.972656 245.007812 C 157.078125 245.457031 157.214844 245.902344 157.378906 246.332031 C 157.378906 246.339844 157.382812 246.351562 157.386719 246.359375 C 157.792969 247.5 158.351562 248.523438 159 249.328125 C 159.433594 249.871094 159.949219 250.25 160.613281 250.527344 C 161.183594 250.761719 161.792969 250.902344 162.53125 251.035156 L 162.78125 251.082031 C 163.488281 251.207031 164.21875 251.339844 164.949219 251.585938 L 164.988281 251.601562 C 165.222656 251.679688 165.351562 251.9375 165.273438 252.171875 C 165.210938 252.363281 165.035156 252.480469 164.847656 252.480469 "/><path style=" stroke:none;fill-rule:nonzero;fill:rgb(94.119263%,44.309998%,40.388489%);fill-opacity:1;" d="M 166.757812 248.917969 C 165.941406 248.917969 165.074219 248.503906 164.523438 248.105469 C 163.09375 247.074219 163.273438 245.746094 163.636719 244.578125 L 163.664062 244.480469 C 163.859375 243.871094 164.089844 243.238281 164.308594 242.628906 C 164.78125 241.304688 165.269531 239.9375 165.515625 238.613281 C 165.746094 237.367188 165.074219 236.457031 164.300781 235.40625 L 164.140625 235.1875 C 164.054688 235.066406 163.964844 234.941406 163.882812 234.820312 C 163.507812 234.269531 163.179688 233.796875 162.59375 233.644531 C 162.0625 233.507812 161.597656 233.585938 161.214844 233.875 C 161.042969 234.050781 160.753906 234.054688 160.574219 233.878906 C 160.398438 233.703125 160.394531 233.417969 160.570312 233.242188 C 160.605469 233.207031 160.640625 233.179688 160.675781 233.152344 C 161.273438 232.695312 162.015625 232.5625 162.820312 232.769531 C 163.730469 233.007812 164.207031 233.695312 164.621094 234.304688 C 164.703125 234.421875 164.78125 234.539062 164.867188 234.652344 L 165.023438 234.871094 C 165.847656 235.988281 166.699219 237.144531 166.402344 238.777344 C 166.140625 240.175781 165.640625 241.578125 165.152344 242.933594 C 164.925781 243.566406 164.710938 244.164062 164.519531 244.761719 L 164.492188 244.855469 C 164.089844 246.144531 164.230469 246.78125 165.046875 247.371094 C 165.484375 247.683594 166.207031 248.035156 166.824219 248.015625 C 167.066406 247.996094 167.28125 248.195312 167.292969 248.445312 C 167.304688 248.695312 167.109375 248.90625 166.863281 248.917969 C 166.828125 248.917969 166.792969 248.917969 166.757812 248.917969 "/><path style=" stroke:none;fill-rule:nonzero;fill:rgb(94.119263%,44.309998%,40.388489%);fill-opacity:1;" d="M 164.804688 252.46875 C 164.609375 252.46875 164.429688 252.339844 164.375 252.144531 C 164.300781 251.90625 164.4375 251.65625 164.675781 251.582031 L 164.808594 251.539062 C 165.058594 251.460938 165.316406 251.375 165.574219 251.285156 C 165.808594 251.199219 166.066406 251.324219 166.148438 251.558594 C 166.234375 251.792969 166.109375 252.050781 165.875 252.136719 C 165.609375 252.230469 165.34375 252.316406 165.078125 252.402344 L 164.933594 252.449219 C 164.890625 252.460938 164.847656 252.46875 164.804688 252.46875 "/><path style=" stroke:none;fill-rule:nonzero;fill:rgb(94.119263%,44.309998%,40.388489%);fill-opacity:1;" d="M 177.660156 258.976562 C 176.257812 258.976562 175.042969 258.484375 174.035156 257.5 C 173.136719 256.617188 173.078125 255.476562 173.101562 254.378906 C 173.101562 254.246094 173.101562 254.105469 173.105469 253.960938 C 173.105469 253.824219 173.109375 253.683594 173.109375 253.546875 L 173.109375 253.097656 C 173.113281 252.21875 173.121094 251.386719 172.964844 250.550781 C 172.921875 250.300781 172.90625 250.074219 172.890625 249.851562 C 172.867188 249.542969 172.84375 249.25 172.75 248.960938 C 172.726562 248.886719 172.699219 248.816406 172.671875 248.746094 L 172.640625 248.65625 C 172.554688 248.421875 172.675781 248.164062 172.910156 248.078125 C 173.140625 247.992188 173.402344 248.113281 173.488281 248.347656 L 173.515625 248.429688 C 173.546875 248.511719 173.578125 248.597656 173.605469 248.679688 C 173.734375 249.074219 173.761719 249.433594 173.785156 249.785156 C 173.800781 249.992188 173.816406 250.1875 173.851562 250.390625 C 174.019531 251.308594 174.015625 252.21875 174.011719 253.101562 L 174.007812 253.546875 C 174.007812 253.691406 174.007812 253.835938 174.003906 253.976562 C 174.003906 254.117188 174 254.253906 174 254.386719 C 173.980469 255.367188 174.019531 256.222656 174.664062 256.851562 C 175.96875 258.128906 177.644531 258.402344 179.796875 257.695312 C 180.230469 257.554688 180.679688 257.375 181.140625 257.160156 C 181.625 256.9375 182.144531 256.660156 182.722656 256.320312 C 182.941406 256.195312 183.214844 256.269531 183.339844 256.484375 C 183.464844 256.699219 183.390625 256.976562 183.175781 257.101562 C 182.570312 257.457031 182.027344 257.742188 181.515625 257.980469 C 181.027344 258.210938 180.542969 258.402344 180.078125 258.554688 C 179.21875 258.835938 178.414062 258.976562 177.660156 258.976562 "/><path style=" stroke:none;fill-rule:nonzero;fill:rgb(94.119263%,44.309998%,40.388489%);fill-opacity:1;" d="M 173.0625 248.953125 C 172.90625 248.953125 172.75 248.871094 172.667969 248.722656 C 172.550781 248.503906 172.628906 248.226562 172.84375 248.105469 C 173.351562 247.828125 173.929688 247.652344 174.390625 247.511719 C 174.773438 247.394531 175.09375 247.304688 175.394531 247.230469 C 176.050781 247.070312 176.65625 246.972656 177.25 246.933594 C 177.496094 246.917969 177.710938 247.105469 177.726562 247.355469 C 177.742188 247.605469 177.554688 247.820312 177.304688 247.835938 C 176.769531 247.871094 176.214844 247.960938 175.609375 248.109375 C 175.324219 248.179688 175.019531 248.265625 174.652344 248.375 C 174.113281 248.539062 173.671875 248.679688 173.28125 248.898438 C 173.210938 248.9375 173.136719 248.953125 173.0625 248.953125 "/><path style=" stroke:none;fill-rule:nonzero;fill:rgb(94.119263%,44.309998%,40.388489%);fill-opacity:1;" d="M 181.007812 255.636719 C 180.785156 255.636719 180.59375 255.472656 180.5625 255.242188 C 180.480469 254.605469 180.375 254.089844 180.234375 253.617188 C 180.15625 253.367188 180.085938 253.109375 180.015625 252.851562 C 179.703125 251.75 179.382812 250.605469 178.753906 249.730469 C 178.542969 249.4375 178.304688 249.160156 178.054688 248.871094 C 177.882812 248.671875 177.710938 248.472656 177.546875 248.269531 C 177.398438 248.085938 177.21875 247.914062 177 247.742188 C 176.804688 247.589844 176.769531 247.304688 176.921875 247.109375 C 177.074219 246.910156 177.355469 246.875 177.554688 247.027344 C 177.828125 247.242188 178.054688 247.460938 178.25 247.703125 C 178.40625 247.898438 178.570312 248.089844 178.734375 248.277344 C 178.988281 248.570312 179.25 248.875 179.484375 249.199219 C 180.207031 250.210938 180.550781 251.429688 180.878906 252.609375 C 180.953125 252.859375 181.023438 253.109375 181.09375 253.355469 C 181.25 253.875 181.367188 254.4375 181.457031 255.125 C 181.488281 255.375 181.3125 255.601562 181.070312 255.632812 C 181.046875 255.636719 181.027344 255.636719 181.007812 255.636719 "/><path style=" stroke:none;fill-rule:nonzero;fill:rgb(94.119263%,44.309998%,40.388489%);fill-opacity:1;" d="M 175.488281 246.722656 C 175.417969 246.722656 175.339844 246.703125 175.273438 246.667969 C 175.21875 246.636719 175.171875 246.609375 175.121094 246.574219 C 174.914062 246.433594 174.855469 246.15625 174.996094 245.945312 C 175.132812 245.738281 175.410156 245.683594 175.617188 245.820312 C 175.652344 245.84375 175.675781 245.859375 175.710938 245.875 C 175.925781 245.996094 176.003906 246.273438 175.882812 246.492188 C 175.800781 246.640625 175.648438 246.722656 175.488281 246.722656 "/><path style=" stroke:none;fill-rule:nonzero;fill:rgb(94.119263%,44.309998%,40.388489%);fill-opacity:1;" d="M 183.03125 257.113281 Z M 183.058594 257.144531 Z M 183.390625 257.296875 C 183.261719 257.296875 183.136719 257.242188 183.046875 257.136719 C 183.035156 257.128906 183.019531 257.125 183.003906 257.117188 C 182.957031 257.101562 182.910156 257.082031 182.867188 257.058594 C 182.761719 257.015625 182.648438 256.964844 182.527344 256.886719 C 182.128906 256.648438 181.820312 256.445312 181.527344 256.234375 C 181.300781 256.070312 181.105469 255.886719 180.917969 255.710938 L 180.800781 255.601562 C 180.773438 255.578125 180.757812 255.5625 180.746094 255.550781 C 180.554688 255.398438 180.511719 255.113281 180.660156 254.917969 C 180.808594 254.722656 181.074219 254.675781 181.269531 254.816406 C 181.324219 254.855469 181.378906 254.90625 181.421875 254.949219 L 181.527344 255.046875 C 181.703125 255.214844 181.871094 255.371094 182.050781 255.5 C 182.324219 255.695312 182.617188 255.886719 182.996094 256.117188 C 183.070312 256.164062 183.140625 256.195312 183.230469 256.234375 C 183.246094 256.242188 183.265625 256.25 183.28125 256.257812 C 183.292969 256.265625 183.308594 256.269531 183.324219 256.273438 C 183.421875 256.3125 183.613281 256.386719 183.75 256.574219 C 183.898438 256.773438 183.859375 257.054688 183.660156 257.203125 C 183.578125 257.265625 183.484375 257.296875 183.390625 257.296875 "/><g style="fill:rgb(94.119263%,44.309998%,40.388489%);fill-opacity:1;"><g transform="translate(38.355452, 179.386344)"><path style="stroke:none;" d="M 45.671875 0 L 2.75 0 L 24.203125 -46.515625 Z M 6.546875 -2.421875 L 41.875 -2.421875 L 24.203125 -40.75 Z M 6.546875 -2.421875 "/></g></g><g style="fill:rgb(94.119263%,44.309998%,40.388489%);fill-opacity:1;"><g transform="translate(88.332136, 179.386344)"><path style="stroke:none;" d="M 23.421875 0.984375 C 20.328125 0.984375 17.445312 0.273438 14.78125 -1.140625 C 12.125 -2.554688 9.941406 -4.507812 8.234375 -7 C 6.535156 -9.488281 5.535156 -12.238281 5.234375 -15.25 L 7.65625 -15.25 C 7.957031 -12.675781 8.847656 -10.328125 10.328125 -8.203125 C 11.816406 -6.085938 13.707031 -4.429688 16 -3.234375 C 18.289062 -2.035156 20.765625 -1.4375 23.421875 -1.4375 C 26.335938 -1.4375 29.015625 -2.15625 31.453125 -3.59375 C 33.898438 -5.03125 35.84375 -7.015625 37.28125 -9.546875 C 38.726562 -12.078125 39.453125 -14.914062 39.453125 -18.0625 L 39.453125 -43.109375 L 19.03125 -43.109375 L 19.03125 -45.53125 L 41.796875 -45.53125 L 41.796875 -18.0625 C 41.796875 -14.476562 40.976562 -11.234375 39.34375 -8.328125 C 37.707031 -5.429688 35.484375 -3.15625 32.671875 -1.5 C 29.859375 0.15625 26.773438 0.984375 23.421875 0.984375 Z M 23.421875 0.984375 "/></g></g><g style="fill:rgb(94.119263%,44.309998%,40.388489%);fill-opacity:1;"><g transform="translate(138.308819, 179.386344)"><path style="stroke:none;" d="M 5.828125 -45.53125 L 8.25 -45.53125 L 8.25 -17.40625 C 8.25 -14.519531 8.96875 -11.851562 10.40625 -9.40625 C 11.84375 -6.96875 13.78125 -5.03125 16.21875 -3.59375 C 18.664062 -2.15625 21.328125 -1.4375 24.203125 -1.4375 C 27.085938 -1.4375 29.75 -2.15625 32.1875 -3.59375 C 34.625 -5.03125 36.5625 -6.96875 38 -9.40625 C 39.445312 -11.851562 40.171875 -14.519531 40.171875 -17.40625 L 40.171875 -45.53125 L 42.59375 -45.53125 L 42.59375 -17.40625 C 42.59375 -14.09375 41.765625 -11.023438 40.109375 -8.203125 C 38.453125 -5.390625 36.210938 -3.15625 33.390625 -1.5 C 30.578125 0.15625 27.515625 0.984375 24.203125 0.984375 C 20.890625 0.984375 17.828125 0.15625 15.015625 -1.5 C 12.203125 -3.15625 9.96875 -5.390625 8.3125 -8.203125 C 6.65625 -11.023438 5.828125 -14.09375 5.828125 -17.40625 Z M 5.828125 -45.53125 "/></g></g><g style="fill:rgb(94.119263%,44.309998%,40.388489%);fill-opacity:1;"><g transform="translate(188.285496, 179.386344)"><path style="stroke:none;" d="M 23.75 -45.53125 C 27.0625 -45.53125 30.125 -44.703125 32.9375 -43.046875 C 35.75 -41.390625 37.984375 -39.15625 39.640625 -36.34375 C 41.296875 -33.53125 42.125 -30.46875 42.125 -27.15625 L 42.125 -18.390625 C 42.125 -15.066406 41.296875 -12 39.640625 -9.1875 C 37.984375 -6.375 35.75 -4.140625 32.9375 -2.484375 C 30.125 -0.828125 27.0625 0 23.75 0 L 6.9375 0 L 6.9375 -45.53125 Z M 39.71875 -27.15625 C 39.71875 -30.03125 38.992188 -32.6875 37.546875 -35.125 C 36.109375 -37.570312 34.15625 -39.515625 31.6875 -40.953125 C 29.226562 -42.390625 26.5625 -43.109375 23.6875 -43.109375 L 9.359375 -43.109375 L 9.359375 -2.421875 L 23.6875 -2.421875 C 26.5625 -2.421875 29.226562 -3.140625 31.6875 -4.578125 C 34.15625 -6.015625 36.109375 -7.953125 37.546875 -10.390625 C 38.992188 -12.835938 39.71875 -15.503906 39.71875 -18.390625 Z M 39.71875 -27.15625 "/></g></g><g style="fill:rgb(94.119263%,44.309998%,40.388489%);fill-opacity:1;"><g transform="translate(238.262185, 179.386344)"><path style="stroke:none;" d="M 8.5 -45.53125 L 40.5625 -45.53125 L 40.5625 -43.109375 L 10.921875 -43.109375 L 10.921875 -24.65625 L 36.703125 -24.65625 L 36.703125 -22.25 L 10.921875 -22.25 L 10.921875 -2.421875 L 40.5625 -2.421875 L 40.5625 0 L 8.5 0 Z M 8.5 -45.53125 "/></g></g><g style="fill:rgb(94.119263%,44.309998%,40.388489%);fill-opacity:1;"><g transform="translate(288.238874, 179.386344)"><path style="stroke:none;" d="M 38.984375 -45.53125 L 38.984375 -43.109375 L 25.390625 -43.109375 L 25.390625 -2.421875 L 38.984375 -2.421875 L 38.984375 0 L 9.484375 0 L 9.484375 -2.421875 L 23.03125 -2.421875 L 23.03125 -43.109375 L 9.484375 -43.109375 L 9.484375 -45.53125 Z M 38.984375 -45.53125 "/></g></g></g></svg>