<?xml version="1.0" encoding="UTF-8"?><svg xmlns="http://www.w3.org/2000/svg" xmlns:xlink="http://www.w3.org/1999/xlink" contentScriptType="text/ecmascript" width="375pt" zoomAndPan="magnify" contentStyleType="text/css" viewBox="0 0 375 374.999991" height="374.999991pt" preserveAspectRatio="xMidYMid meet" version="1.2"><defs><clipPath xml:id="clip1" id="clip1"><path d="M 182.15625 217.660156 L 197.148438 217.660156 L 197.148438 222.1875 L 182.15625 222.1875 Z M 182.15625 217.660156 "/></clipPath><clipPath xml:id="clip2" id="clip2"><path d="M 224 152.445312 L 249 152.445312 L 249 165 L 224 165 Z M 224 152.445312 "/></clipPath><clipPath xml:id="clip3" id="clip3"><path d="M 229.582031 181.125 L 263.894531 181.125 L 263.894531 192 L 229.582031 192 Z M 229.582031 181.125 "/></clipPath><clipPath xml:id="clip4" id="clip4"><path d="M 126 152.445312 L 173 152.445312 L 173 167 L 126 167 Z M 126 152.445312 "/></clipPath><clipPath xml:id="clip5" id="clip5"><path d="M 111 152.445312 L 128 152.445312 L 128 177 L 111 177 Z M 111 152.445312 "/></clipPath><clipPath xml:id="clip6" id="clip6"><path d="M 247.023438 152.507812 L 263.894531 152.507812 L 263.894531 182.34375 L 247.023438 182.34375 Z M 247.023438 152.507812 "/></clipPath></defs><g xml:id="surface1" id="surface1"><g clip-rule="nonzero" clip-path="url(#clip1)"><path style=" stroke:none;fill-rule:nonzero;fill:rgb(94.119263%,44.309998%,40.388489%);fill-opacity:1;" d="M 190.027344 222.1875 C 189.628906 222.1875 189.222656 222.128906 188.804688 221.992188 C 187.773438 221.652344 186.703125 220.9375 185.664062 220.246094 C 184.984375 219.789062 184.339844 219.359375 183.734375 219.046875 C 183.433594 218.890625 183.082031 218.730469 182.679688 218.566406 C 182.445312 218.472656 182.332031 218.207031 182.429688 217.972656 C 182.523438 217.738281 182.792969 217.625 183.027344 217.722656 C 183.457031 217.894531 183.835938 218.070312 184.15625 218.238281 C 184.804688 218.570312 185.503906 219.035156 186.175781 219.484375 C 187.160156 220.144531 188.179688 220.824219 189.089844 221.125 C 190.542969 221.601562 191.925781 220.84375 193.382812 220.042969 C 194.355469 219.507812 195.359375 218.957031 196.457031 218.726562 C 196.703125 218.675781 196.949219 218.832031 197 219.078125 C 197.054688 219.328125 196.894531 219.570312 196.648438 219.621094 C 195.683594 219.824219 194.742188 220.339844 193.828125 220.84375 C 192.617188 221.507812 191.375 222.1875 190.027344 222.1875 "/></g><path style=" stroke:none;fill-rule:nonzero;fill:rgb(94.119263%,44.309998%,40.388489%);fill-opacity:1;" d="M 197.621094 219.863281 C 197.191406 219.863281 196.789062 219.773438 196.371094 219.59375 C 195.847656 219.367188 195.320312 219.011719 194.6875 218.542969 C 191.023438 215.828125 186.90625 213.371094 183.273438 211.203125 C 183.054688 211.070312 182.984375 210.792969 183.113281 210.574219 C 183.246094 210.359375 183.527344 210.289062 183.746094 210.417969 C 187.394531 212.597656 191.535156 215.066406 195.238281 217.808594 C 195.738281 218.179688 196.265625 218.550781 196.734375 218.757812 C 197.441406 219.058594 198.109375 219.082031 199.609375 218.332031 C 201.386719 217.445312 203.265625 216.238281 204.628906 215.097656 C 204.824219 214.9375 205.113281 214.960938 205.277344 215.15625 C 205.441406 215.347656 205.414062 215.636719 205.222656 215.796875 C 203.804688 216.980469 201.859375 218.234375 200.019531 219.152344 C 199.050781 219.632812 198.304688 219.863281 197.621094 219.863281 "/><path style=" stroke:none;fill-rule:nonzero;fill:rgb(94.119263%,44.309998%,40.388489%);fill-opacity:1;" d="M 207.089844 216.222656 C 206.3125 216.222656 205.527344 216.113281 204.789062 215.882812 C 204.179688 215.703125 203.632812 215.441406 203.164062 215.113281 C 201.632812 214.039062 200.207031 212.414062 198.695312 210.691406 C 196.339844 208.015625 193.902344 205.242188 191.042969 204.609375 C 190.792969 204.554688 190.640625 204.3125 190.695312 204.066406 C 190.75 203.816406 190.992188 203.664062 191.242188 203.71875 C 194.398438 204.417969 196.933594 207.300781 199.382812 210.09375 C 200.859375 211.769531 202.253906 213.355469 203.691406 214.367188 C 204.078125 214.640625 204.539062 214.855469 205.058594 215.011719 C 206.867188 215.570312 209.046875 215.320312 210.484375 214.386719 C 210.699219 214.25 210.984375 214.308594 211.121094 214.519531 C 211.257812 214.730469 211.199219 215.011719 210.988281 215.152344 C 209.902344 215.855469 208.503906 216.222656 207.089844 216.222656 "/><path style=" stroke:none;fill-rule:nonzero;fill:rgb(94.119263%,44.309998%,40.388489%);fill-opacity:1;" d="M 210.703125 215.300781 C 210.621094 215.300781 210.539062 215.28125 210.46875 215.238281 C 210.25 215.105469 210.179688 214.828125 210.308594 214.609375 C 210.3125 214.601562 210.316406 214.585938 210.320312 214.574219 C 211.640625 211.765625 211.71875 211.597656 209.957031 209.285156 L 209.777344 209.050781 C 208.445312 207.324219 206.953125 205.691406 205.535156 204.179688 C 205.332031 203.964844 205.109375 203.730469 204.871094 203.484375 C 202.90625 201.433594 200.210938 198.625 200.429688 196.101562 C 200.449219 195.851562 200.675781 195.664062 200.925781 195.683594 C 201.175781 195.707031 201.363281 195.929688 201.339844 196.179688 C 201.160156 198.292969 203.792969 201.035156 205.535156 202.851562 C 205.773438 203.101562 206 203.339844 206.207031 203.558594 C 207.636719 205.085938 209.152344 206.738281 210.503906 208.496094 L 210.6875 208.734375 C 212.726562 211.40625 212.554688 211.980469 211.152344 214.960938 C 211.140625 214.992188 211.121094 215.039062 211.097656 215.078125 C 211.011719 215.222656 210.859375 215.300781 210.703125 215.300781 "/><path style=" stroke:none;fill-rule:nonzero;fill:rgb(94.119263%,44.309998%,40.388489%);fill-opacity:1;" d="M 216.761719 205.359375 C 216.707031 205.359375 216.652344 205.351562 216.597656 205.332031 C 216.214844 205.183594 215.847656 205.015625 215.480469 204.816406 C 214.039062 204.054688 212.65625 202.957031 211.324219 201.894531 C 210.101562 200.921875 208.945312 200 207.859375 199.4375 C 207.675781 199.339844 207.429688 199.207031 207.140625 199.046875 C 205.65625 198.226562 202.558594 196.53125 200.90625 196.597656 C 200.640625 196.621094 200.4375 196.414062 200.425781 196.164062 C 200.414062 195.910156 200.609375 195.695312 200.863281 195.683594 C 202.773438 195.597656 205.90625 197.320312 207.585938 198.246094 C 207.867188 198.402344 208.105469 198.535156 208.285156 198.628906 C 209.449219 199.234375 210.636719 200.179688 211.894531 201.179688 C 213.199219 202.21875 214.542969 203.289062 215.914062 204.011719 C 216.25 204.195312 216.582031 204.34375 216.929688 204.476562 C 217.164062 204.570312 217.28125 204.832031 217.191406 205.070312 C 217.121094 205.25 216.945312 205.359375 216.761719 205.359375 "/><path style=" stroke:none;fill-rule:nonzero;fill:rgb(94.119263%,44.309998%,40.388489%);fill-opacity:1;" d="M 210.140625 209.230469 C 209.984375 209.230469 209.832031 209.152344 209.746094 209.007812 C 209.617188 208.792969 209.6875 208.511719 209.902344 208.382812 C 210.632812 207.949219 211.4375 207.386719 212.300781 206.71875 C 213.296875 205.9375 214.367188 205.027344 215.386719 204.082031 C 215.570312 203.910156 215.863281 203.910156 216.035156 204.089844 C 216.210938 204.269531 216.214844 204.546875 216.039062 204.722656 C 216.035156 204.730469 216.015625 204.746094 216.011719 204.75 C 214.972656 205.710938 213.886719 206.640625 212.867188 207.4375 C 211.972656 208.132812 211.136719 208.710938 210.375 209.164062 C 210.304688 209.207031 210.222656 209.230469 210.140625 209.230469 "/><path style=" stroke:none;fill-rule:nonzero;fill:rgb(94.119263%,44.309998%,40.388489%);fill-opacity:1;" d="M 214.75 207.933594 C 213.941406 207.933594 213.191406 207.804688 212.417969 207.503906 C 212.179688 207.414062 212.0625 207.148438 212.15625 206.910156 C 212.246094 206.679688 212.515625 206.5625 212.75 206.652344 C 214.257812 207.238281 215.664062 207.074219 217.890625 206.539062 C 218.382812 206.421875 218.949219 206.363281 219.546875 206.300781 C 220.605469 206.191406 221.695312 206.078125 222.3125 205.640625 C 223.390625 204.871094 223.722656 203.144531 223.304688 200.507812 C 223.1875 199.792969 223.023438 199.023438 222.792969 198.152344 C 222.730469 197.90625 222.875 197.65625 223.121094 197.59375 C 223.363281 197.53125 223.617188 197.675781 223.683594 197.917969 C 223.917969 198.820312 224.089844 199.621094 224.210938 200.363281 C 224.6875 203.371094 224.230469 205.394531 222.847656 206.382812 C 222.03125 206.960938 220.816406 207.089844 219.644531 207.210938 C 219.074219 207.269531 218.539062 207.324219 218.105469 207.429688 C 216.804688 207.738281 215.734375 207.933594 214.75 207.933594 "/><path style=" stroke:none;fill-rule:nonzero;fill:rgb(94.119263%,44.309998%,40.388489%);fill-opacity:1;" d="M 223.238281 198.492188 C 223.152344 198.492188 223.066406 198.46875 222.992188 198.421875 L 222.277344 197.96875 C 220.335938 196.742188 218.5 195.585938 216.953125 194.308594 C 208.144531 187.089844 198.785156 181.097656 190.792969 176.1875 C 188.566406 174.824219 186.628906 174.15625 184.402344 173.578125 C 183.730469 173.398438 182.957031 173.078125 182.136719 172.734375 C 181.390625 172.421875 180.621094 172.097656 179.902344 171.878906 C 179.660156 171.800781 179.527344 171.546875 179.601562 171.304688 C 179.675781 171.066406 179.933594 170.929688 180.175781 171.003906 C 180.9375 171.238281 181.726562 171.570312 182.492188 171.890625 C 183.28125 172.222656 184.027344 172.535156 184.636719 172.695312 C 186.941406 173.296875 188.953125 173.984375 191.273438 175.410156 C 199.292969 180.335938 208.6875 186.351562 217.535156 193.605469 C 219.042969 194.84375 220.851562 195.988281 222.769531 197.199219 L 223.484375 197.648438 C 223.699219 197.785156 223.761719 198.066406 223.625 198.28125 C 223.535156 198.417969 223.390625 198.492188 223.238281 198.492188 "/><path style=" stroke:none;fill-rule:nonzero;fill:rgb(94.119263%,44.309998%,40.388489%);fill-opacity:1;" d="M 223.757812 200.894531 C 223.664062 200.894531 223.570312 200.867188 223.492188 200.808594 C 223.285156 200.664062 223.234375 200.378906 223.382812 200.171875 C 223.730469 199.6875 224.136719 199.234375 224.628906 198.789062 C 225.140625 198.320312 225.695312 197.894531 226.234375 197.484375 C 227.121094 196.808594 227.957031 196.167969 228.617188 195.34375 C 229.457031 194.296875 229.632812 192.746094 229.691406 191.511719 C 229.722656 190.890625 229.726562 190.234375 229.726562 189.601562 C 229.734375 188.199219 229.742188 186.746094 230.058594 185.535156 C 230.125 185.289062 230.375 185.144531 230.621094 185.207031 C 230.863281 185.273438 231.011719 185.523438 230.949219 185.765625 C 230.660156 186.863281 230.652344 188.195312 230.644531 189.605469 C 230.644531 190.246094 230.640625 190.914062 230.609375 191.558594 C 230.542969 192.925781 230.335938 194.660156 229.335938 195.914062 C 228.605469 196.824219 227.683594 197.53125 226.792969 198.210938 C 226.273438 198.605469 225.734375 199.019531 225.246094 199.464844 C 224.804688 199.863281 224.441406 200.269531 224.132812 200.703125 C 224.042969 200.828125 223.902344 200.894531 223.757812 200.894531 "/><g clip-rule="nonzero" clip-path="url(#clip2)"><path style=" stroke:none;fill-rule:nonzero;fill:rgb(94.119263%,44.309998%,40.388489%);fill-opacity:1;" d="M 224.902344 165 C 224.707031 165 224.527344 164.875 224.464844 164.683594 C 224.386719 164.441406 224.519531 164.183594 224.761719 164.109375 C 226.140625 163.671875 227.34375 163.230469 228.445312 162.765625 C 235.554688 159.753906 242.078125 155.9375 247.519531 152.601562 C 247.734375 152.46875 248.019531 152.535156 248.152344 152.75 C 248.285156 152.964844 248.214844 153.246094 248 153.378906 C 242.53125 156.730469 235.972656 160.570312 228.804688 163.605469 C 227.679688 164.082031 226.449219 164.53125 225.042969 164.976562 C 224.996094 164.992188 224.949219 165 224.902344 165 "/></g><g clip-rule="nonzero" clip-path="url(#clip3)"><path style=" stroke:none;fill-rule:nonzero;fill:rgb(94.119263%,44.309998%,40.388489%);fill-opacity:1;" d="M 230.152344 191.992188 C 229.996094 191.992188 229.84375 191.914062 229.757812 191.769531 C 229.625 191.550781 229.699219 191.273438 229.917969 191.144531 C 231.046875 190.472656 232.234375 189.917969 233.015625 189.550781 L 233.121094 189.5 C 234.492188 188.855469 235.914062 188.5625 237.292969 188.277344 C 237.800781 188.175781 238.328125 188.066406 238.847656 187.941406 C 240 187.664062 241.160156 187.390625 242.320312 187.117188 C 249.277344 185.476562 256.46875 183.777344 263.28125 181.410156 C 263.519531 181.328125 263.785156 181.453125 263.867188 181.691406 C 263.953125 181.929688 263.824219 182.191406 263.585938 182.273438 C 256.726562 184.65625 249.511719 186.359375 242.53125 188.003906 C 241.371094 188.277344 240.214844 188.550781 239.0625 188.828125 C 238.527344 188.957031 237.992188 189.066406 237.480469 189.171875 C 236.09375 189.457031 234.785156 189.726562 233.515625 190.324219 L 233.40625 190.375 C 232.640625 190.738281 231.480469 191.28125 230.382812 191.929688 C 230.3125 191.972656 230.230469 191.992188 230.152344 191.992188 "/></g><path style=" stroke:none;fill-rule:nonzero;fill:rgb(94.119263%,44.309998%,40.388489%);fill-opacity:1;" d="M 217.125 163.9375 C 216.988281 163.9375 216.847656 163.875 216.757812 163.753906 C 216.605469 163.554688 216.644531 163.265625 216.847656 163.117188 C 217.703125 162.476562 220.402344 160.257812 219.261719 158.605469 C 219.019531 158.257812 218.550781 158.066406 217.796875 158.003906 C 217.542969 157.984375 217.355469 157.765625 217.375 157.515625 C 217.394531 157.261719 217.621094 157.074219 217.867188 157.097656 C 218.902344 157.179688 219.605469 157.503906 220.015625 158.085938 C 221.113281 159.675781 220.160156 161.773438 217.402344 163.84375 C 217.320312 163.90625 217.222656 163.9375 217.125 163.9375 "/><path style=" stroke:none;fill-rule:nonzero;fill:rgb(94.119263%,44.309998%,40.388489%);fill-opacity:1;" d="M 160.707031 181.074219 C 158.90625 181.074219 156.914062 180.734375 155.664062 179.710938 C 155.386719 179.484375 155.148438 179.226562 154.957031 178.949219 C 154.8125 178.742188 154.867188 178.457031 155.074219 178.3125 C 155.28125 178.171875 155.570312 178.222656 155.714844 178.429688 C 155.855469 178.640625 156.035156 178.835938 156.246094 179.007812 C 157.835938 180.300781 161.242188 180.324219 163.15625 179.929688 C 165.984375 179.34375 167.949219 178.058594 170.410156 176.304688 C 172.941406 174.503906 175.941406 172.824219 179.847656 171.027344 C 180.074219 170.921875 180.351562 171.019531 180.457031 171.25 C 180.5625 171.476562 180.460938 171.75 180.234375 171.855469 C 176.378906 173.628906 173.429688 175.28125 170.945312 177.046875 C 168.390625 178.867188 166.347656 180.199219 163.34375 180.824219 C 162.625 180.972656 161.695312 181.074219 160.707031 181.074219 "/><path style=" stroke:none;fill-rule:nonzero;fill:rgb(94.119263%,44.309998%,40.388489%);fill-opacity:1;" d="M 224.902344 165 C 224.894531 165 224.886719 165 224.878906 165 C 222.714844 164.894531 220.714844 164.664062 218.773438 164.304688 C 218.238281 164.203125 217.664062 164.078125 217.015625 163.921875 C 216.761719 163.863281 216.5 163.800781 216.238281 163.738281 C 215.257812 163.507812 214.246094 163.265625 213.230469 163.105469 C 206.292969 162.011719 199.070312 161.28125 191.761719 160.929688 C 190.472656 160.867188 189.164062 160.738281 187.894531 160.617188 L 187.625 160.589844 C 185.816406 160.410156 183.941406 160.230469 182.144531 160.230469 C 180.210938 160.234375 178.277344 160.734375 176.613281 161.203125 C 176.371094 161.273438 176.117188 161.132812 176.046875 160.890625 C 175.980469 160.648438 176.121094 160.394531 176.363281 160.324219 C 178.082031 159.839844 180.089844 159.320312 182.140625 159.316406 C 183.992188 159.316406 185.886719 159.5 187.714844 159.679688 L 187.988281 159.707031 C 189.242188 159.832031 190.539062 159.957031 191.808594 160.019531 C 199.148438 160.371094 206.40625 161.105469 213.375 162.203125 C 214.421875 162.367188 215.453125 162.613281 216.449219 162.851562 C 216.710938 162.914062 216.96875 162.976562 217.230469 163.035156 C 217.863281 163.1875 218.421875 163.308594 218.941406 163.40625 C 220.84375 163.757812 222.800781 163.980469 224.925781 164.085938 C 225.179688 164.101562 225.371094 164.3125 225.359375 164.566406 C 225.347656 164.8125 225.144531 165 224.902344 165 "/><path style=" stroke:none;fill-rule:nonzero;fill:rgb(94.119263%,44.309998%,40.388489%);fill-opacity:1;" d="M 187.703125 160.59375 C 187.527344 160.59375 187.359375 160.492188 187.28125 160.324219 C 187.179688 160.09375 187.285156 159.824219 187.515625 159.722656 C 188.808594 159.148438 189.914062 158.796875 190.992188 158.613281 C 193.378906 158.210938 195.90625 158.273438 198.355469 158.332031 C 199.203125 158.351562 200.078125 158.371094 200.921875 158.371094 C 201.660156 158.371094 202.570312 158.40625 203.628906 158.445312 C 207.78125 158.601562 214.0625 158.835938 217.632812 157.140625 C 217.863281 157.03125 218.136719 157.128906 218.246094 157.355469 C 218.355469 157.582031 218.257812 157.855469 218.027344 157.964844 C 214.253906 159.757812 207.835938 159.515625 203.589844 159.359375 C 202.546875 159.320312 201.644531 159.285156 200.921875 159.285156 C 200.066406 159.285156 199.1875 159.265625 198.332031 159.242188 C 195.929688 159.1875 193.445312 159.128906 191.148438 159.515625 C 190.128906 159.6875 189.125 160.007812 187.886719 160.554688 C 187.828125 160.582031 187.765625 160.59375 187.703125 160.59375 "/><path style=" stroke:none;fill-rule:nonzero;fill:rgb(94.119263%,44.309998%,40.388489%);fill-opacity:1;" d="M 156.105469 204.496094 C 156.019531 204.496094 155.929688 204.472656 155.851562 204.417969 C 154.898438 203.78125 153.996094 203.039062 153.121094 202.316406 C 152.828125 202.078125 152.535156 201.835938 152.242188 201.597656 C 152.074219 201.460938 151.90625 201.332031 151.738281 201.203125 C 151.535156 201.046875 151.5 200.757812 151.65625 200.558594 C 151.8125 200.363281 152.101562 200.324219 152.300781 200.480469 C 152.476562 200.617188 152.652344 200.75 152.820312 200.894531 C 153.113281 201.125 153.410156 201.371094 153.707031 201.613281 C 154.5625 202.320312 155.453125 203.050781 156.363281 203.660156 C 156.574219 203.804688 156.628906 204.085938 156.488281 204.296875 C 156.398438 204.425781 156.253906 204.496094 156.105469 204.496094 "/><path style=" stroke:none;fill-rule:nonzero;fill:rgb(94.119263%,44.309998%,40.388489%);fill-opacity:1;" d="M 151.09375 203.355469 C 151.054688 203.355469 151.011719 203.351562 150.972656 203.34375 C 147.121094 202.304688 146.679688 199.691406 146.214844 196.929688 C 146.078125 196.125 145.941406 195.292969 145.710938 194.46875 C 145.574219 193.949219 145.40625 193.464844 145.207031 193.023438 C 145.101562 192.792969 145.207031 192.523438 145.4375 192.417969 C 145.667969 192.316406 145.941406 192.417969 146.042969 192.648438 C 146.261719 193.136719 146.449219 193.667969 146.597656 194.230469 C 146.835938 195.097656 146.980469 195.949219 147.121094 196.777344 C 147.570312 199.457031 147.929688 201.574219 151.214844 202.460938 C 151.457031 202.527344 151.601562 202.777344 151.535156 203.019531 C 151.480469 203.222656 151.296875 203.355469 151.09375 203.355469 "/><path style=" stroke:none;fill-rule:nonzero;fill:rgb(94.119263%,44.309998%,40.388489%);fill-opacity:1;" d="M 151.78125 202.722656 C 151.777344 202.722656 151.773438 202.722656 151.769531 202.722656 C 151.515625 202.714844 151.316406 202.503906 151.320312 202.253906 C 151.390625 199.371094 150.480469 196.390625 148.945312 194.480469 C 148.117188 193.449219 146.804688 192.613281 145.875 193.21875 C 145.773438 193.28125 145.6875 193.359375 145.601562 193.449219 C 145.429688 193.636719 145.136719 193.648438 144.949219 193.476562 C 144.765625 193.304688 144.753906 193.015625 144.925781 192.832031 C 145.066406 192.675781 145.214844 192.554688 145.378906 192.449219 C 146.789062 191.53125 148.546875 192.519531 149.664062 193.910156 C 151.328125 195.980469 152.3125 199.1875 152.238281 202.277344 C 152.234375 202.523438 152.027344 202.722656 151.78125 202.722656 "/><path style=" stroke:none;fill-rule:nonzero;fill:rgb(94.119263%,44.309998%,40.388489%);fill-opacity:1;" d="M 155.335938 179.148438 C 155.289062 179.148438 155.246094 179.140625 155.199219 179.128906 C 154.957031 179.050781 154.820312 178.796875 154.894531 178.554688 C 154.921875 178.472656 154.953125 178.394531 154.996094 178.3125 C 155.476562 177.332031 156.191406 177.082031 156.882812 176.84375 C 157.175781 176.742188 157.476562 176.636719 157.769531 176.46875 C 159.125 175.699219 160.367188 174.601562 161.566406 173.542969 C 162.203125 172.980469 162.863281 172.398438 163.539062 171.863281 C 165.601562 170.226562 167.546875 168.355469 169.429688 166.542969 C 170.316406 165.691406 171.234375 164.808594 172.15625 163.960938 C 172.160156 163.957031 172.175781 163.941406 172.195312 163.925781 C 172.199219 163.921875 172.214844 163.90625 172.21875 163.902344 C 173.585938 162.648438 174.886719 161.507812 176.195312 160.414062 C 176.386719 160.253906 176.679688 160.277344 176.839844 160.472656 C 177.003906 160.664062 176.980469 160.953125 176.785156 161.113281 C 175.488281 162.199219 174.199219 163.332031 172.839844 164.574219 C 172.839844 164.578125 172.820312 164.59375 172.804688 164.609375 C 172.796875 164.613281 172.785156 164.628906 172.777344 164.632812 C 171.867188 165.472656 170.953125 166.351562 170.066406 167.203125 C 168.171875 169.027344 166.207031 170.910156 164.113281 172.578125 C 163.453125 173.097656 162.804688 173.671875 162.175781 174.226562 C 160.941406 175.316406 159.664062 176.441406 158.222656 177.261719 C 157.859375 177.46875 157.5 177.59375 157.1875 177.703125 C 156.578125 177.917969 156.136719 178.070312 155.816406 178.714844 C 155.800781 178.753906 155.785156 178.785156 155.773438 178.824219 C 155.710938 179.019531 155.53125 179.148438 155.335938 179.148438 "/><path style=" stroke:none;fill-rule:nonzero;fill:rgb(94.119263%,44.309998%,40.388489%);fill-opacity:1;" d="M 146.15625 194.804688 C 145.996094 194.804688 145.839844 194.71875 145.753906 194.570312 C 145.539062 194.1875 145.261719 193.8125 144.925781 193.449219 C 143.542969 191.984375 141.417969 190.960938 139.539062 190.054688 C 139.253906 189.914062 138.972656 189.78125 138.703125 189.648438 C 133.722656 187.195312 128.769531 184.53125 124.121094 182.015625 C 120.136719 179.855469 115.882812 178.210938 111.773438 176.617188 L 111.460938 176.496094 C 111.222656 176.402344 111.105469 176.136719 111.199219 175.90625 C 111.289062 175.667969 111.558594 175.550781 111.792969 175.644531 L 112.109375 175.765625 C 116.246094 177.371094 120.523438 179.027344 124.5625 181.214844 C 129.199219 183.726562 134.144531 186.382812 139.109375 188.828125 C 139.378906 188.960938 139.65625 189.09375 139.941406 189.230469 C 141.890625 190.171875 144.097656 191.234375 145.597656 192.828125 C 145.984375 193.246094 146.304688 193.679688 146.554688 194.125 C 146.679688 194.34375 146.601562 194.621094 146.378906 194.746094 C 146.308594 194.785156 146.230469 194.804688 146.15625 194.804688 "/><g clip-rule="nonzero" clip-path="url(#clip4)"><path style=" stroke:none;fill-rule:nonzero;fill:rgb(94.119263%,44.309998%,40.388489%);fill-opacity:1;" d="M 158.777344 166.175781 C 157.160156 166.175781 155.527344 166.027344 153.878906 165.628906 C 151.023438 164.9375 148.125 164.03125 145.667969 163.242188 C 143.59375 162.570312 141.789062 161.503906 140.046875 160.472656 C 139.058594 159.890625 138.039062 159.289062 136.96875 158.757812 L 135.851562 158.199219 C 132.789062 156.679688 129.628906 155.109375 126.613281 153.359375 C 126.394531 153.230469 126.320312 152.953125 126.449219 152.734375 C 126.578125 152.515625 126.859375 152.445312 127.078125 152.570312 C 130.066406 154.304688 133.214844 155.867188 136.261719 157.382812 L 137.382812 157.941406 C 138.476562 158.484375 139.511719 159.097656 140.515625 159.6875 C 142.292969 160.738281 143.976562 161.730469 145.953125 162.371094 C 148.394531 163.160156 151.269531 164.058594 154.097656 164.742188 C 158.136719 165.71875 162.003906 165.148438 166.097656 164.550781 C 168.164062 164.246094 170.304688 163.929688 172.449219 163.839844 C 172.707031 163.828125 172.914062 164.027344 172.925781 164.277344 C 172.9375 164.527344 172.738281 164.742188 172.488281 164.753906 C 170.390625 164.839844 168.277344 165.152344 166.230469 165.453125 C 163.792969 165.808594 161.304688 166.175781 158.777344 166.175781 "/></g><g clip-rule="nonzero" clip-path="url(#clip5)"><path style=" stroke:none;fill-rule:nonzero;fill:rgb(94.119263%,44.309998%,40.388489%);fill-opacity:1;" d="M 111.625 176.527344 C 111.582031 176.527344 111.539062 176.519531 111.496094 176.507812 C 111.253906 176.4375 111.113281 176.183594 111.1875 175.941406 C 113.828125 166.992188 119.71875 158.050781 126.558594 152.609375 C 126.757812 152.449219 127.046875 152.484375 127.203125 152.679688 C 127.363281 152.875 127.332031 153.164062 127.132812 153.320312 C 120.433594 158.652344 114.660156 167.421875 112.066406 176.199219 C 112.007812 176.398438 111.824219 176.527344 111.625 176.527344 "/></g><g clip-rule="nonzero" clip-path="url(#clip6)"><path style=" stroke:none;fill-rule:nonzero;fill:rgb(94.119263%,44.309998%,40.388489%);fill-opacity:1;" d="M 263.433594 182.300781 C 263.222656 182.300781 263.03125 182.152344 262.984375 181.941406 C 261.867188 176.800781 260.394531 171.28125 257.210938 165.71875 C 254.117188 160.3125 251.113281 156.492188 247.460938 153.332031 C 247.269531 153.167969 247.246094 152.878906 247.414062 152.6875 C 247.582031 152.5 247.871094 152.476562 248.0625 152.644531 C 251.796875 155.875 254.863281 159.769531 258.007812 165.265625 C 261.25 170.933594 262.75 176.535156 263.882812 181.746094 C 263.9375 181.992188 263.777344 182.234375 263.53125 182.289062 C 263.5 182.296875 263.464844 182.300781 263.433594 182.300781 "/></g><path style=" stroke:none;fill-rule:nonzero;fill:rgb(94.119263%,44.309998%,40.388489%);fill-opacity:1;" d="M 151.09375 203.355469 C 150.933594 203.355469 150.777344 203.273438 150.691406 203.121094 C 150.570312 202.902344 150.648438 202.625 150.871094 202.503906 C 151.367188 202.226562 151.710938 201.75 152.132812 201.015625 C 152.257812 200.796875 152.539062 200.722656 152.757812 200.847656 C 152.976562 200.972656 153.054688 201.253906 152.925781 201.472656 C 152.527344 202.167969 152.074219 202.878906 151.316406 203.300781 C 151.246094 203.339844 151.167969 203.355469 151.09375 203.355469 "/><path style=" stroke:none;fill-rule:nonzero;fill:rgb(94.119263%,44.309998%,40.388489%);fill-opacity:1;" d="M 168.960938 217.933594 C 168.5 217.933594 168.105469 217.835938 167.765625 217.644531 C 167.484375 217.480469 167.296875 217.25 167.128906 217.046875 C 166.9375 216.808594 166.730469 216.574219 166.511719 216.332031 C 165.675781 215.398438 164.730469 214.339844 164.824219 213.054688 C 164.835938 212.863281 164.875 212.675781 164.9375 212.488281 C 165.273438 211.445312 165.660156 210.460938 165.996094 209.636719 L 166.25 209.023438 C 166.554688 208.289062 166.867188 207.527344 167.15625 206.761719 C 167.636719 205.496094 167.675781 204.222656 167.675781 202.8125 C 167.675781 202.558594 167.882812 202.355469 168.136719 202.355469 C 168.390625 202.355469 168.59375 202.558594 168.59375 202.8125 C 168.59375 204.316406 168.550781 205.675781 168.015625 207.082031 C 167.722656 207.863281 167.40625 208.628906 167.097656 209.371094 L 166.847656 209.980469 C 166.519531 210.789062 166.136719 211.753906 165.808594 212.777344 C 165.769531 212.894531 165.746094 213.003906 165.738281 213.117188 C 165.671875 214.023438 166.484375 214.925781 167.195312 215.722656 C 167.425781 215.980469 167.644531 216.21875 167.832031 216.460938 C 167.96875 216.628906 168.089844 216.773438 168.226562 216.855469 C 168.785156 217.171875 170.078125 217.183594 173.027344 215.40625 C 173.242188 215.273438 173.523438 215.34375 173.65625 215.558594 C 173.789062 215.773438 173.71875 216.054688 173.503906 216.183594 C 171.554688 217.359375 170.074219 217.933594 168.960938 217.933594 "/><path style=" stroke:none;fill-rule:nonzero;fill:rgb(94.119263%,44.309998%,40.388489%);fill-opacity:1;" d="M 175.253906 209.460938 C 175 209.460938 174.796875 209.257812 174.796875 209.003906 L 174.792969 208.703125 C 174.792969 208.5 174.792969 208.296875 174.796875 208.097656 C 174.796875 207.949219 174.796875 207.789062 174.785156 207.613281 C 174.667969 205.113281 173.515625 201.917969 171.617188 200.921875 C 171.441406 200.824219 171.261719 200.75 171.0625 200.691406 C 170.664062 200.574219 170.300781 200.894531 169.832031 201.363281 L 169.742188 201.449219 C 169.453125 201.738281 169.222656 202.074219 168.972656 202.433594 C 168.828125 202.644531 168.679688 202.863281 168.511719 203.078125 C 168.5 203.09375 168.488281 203.105469 168.472656 203.121094 C 168.296875 203.296875 168 203.304688 167.820312 203.128906 C 167.640625 202.953125 167.628906 202.675781 167.804688 202.496094 C 167.945312 202.3125 168.078125 202.121094 168.214844 201.917969 C 168.476562 201.542969 168.742188 201.152344 169.09375 200.804688 L 169.183594 200.714844 C 169.652344 200.246094 170.367188 199.539062 171.320312 199.8125 C 171.589844 199.894531 171.828125 199.992188 172.058594 200.117188 C 174.53125 201.417969 175.59375 205.289062 175.703125 207.570312 C 175.710938 207.757812 175.714844 207.933594 175.714844 208.105469 C 175.710938 208.308594 175.710938 208.503906 175.710938 208.699219 L 175.714844 209.003906 C 175.714844 209.257812 175.507812 209.460938 175.253906 209.460938 "/><path style=" stroke:none;fill-rule:nonzero;fill:rgb(94.119263%,44.309998%,40.388489%);fill-opacity:1;" d="M 164.386719 213.867188 C 164.335938 213.867188 164.289062 213.859375 164.238281 213.84375 L 164.195312 213.828125 C 163.515625 213.597656 162.804688 213.472656 162.117188 213.351562 L 161.863281 213.304688 C 161.046875 213.160156 160.375 213.003906 159.714844 212.738281 C 158.902344 212.402344 158.242188 211.914062 157.707031 211.253906 C 156.984375 210.363281 156.359375 209.230469 155.910156 207.984375 C 155.90625 207.976562 155.90625 207.972656 155.902344 207.964844 C 155.726562 207.496094 155.578125 207.011719 155.460938 206.523438 C 155.277344 205.761719 155.65625 204.902344 156.0625 204.085938 L 156.222656 203.769531 C 156.636719 202.90625 157.046875 202.035156 157.457031 201.160156 C 157.851562 200.3125 158.246094 199.46875 158.652344 198.628906 C 159.167969 197.566406 159.777344 196.164062 159.945312 194.707031 C 159.945312 194.695312 159.945312 194.679688 159.949219 194.675781 C 159.949219 194.421875 160.152344 194.226562 160.40625 194.226562 C 160.660156 194.226562 160.863281 194.441406 160.863281 194.695312 C 160.863281 194.726562 160.863281 194.753906 160.859375 194.78125 C 160.675781 196.398438 160.027344 197.898438 159.480469 199.027344 C 159.074219 199.859375 158.683594 200.703125 158.289062 201.542969 C 157.878906 202.421875 157.46875 203.300781 157.046875 204.171875 L 156.886719 204.492188 C 156.640625 204.984375 156.234375 205.808594 156.355469 206.3125 C 156.460938 206.765625 156.601562 207.214844 156.765625 207.652344 C 156.769531 207.660156 156.773438 207.671875 156.773438 207.679688 C 156.773438 207.679688 156.777344 207.679688 156.777344 207.679688 C 157.191406 208.832031 157.761719 209.867188 158.421875 210.679688 C 158.863281 211.226562 159.386719 211.613281 160.066406 211.894531 C 160.648438 212.128906 161.269531 212.269531 162.023438 212.40625 L 162.277344 212.453125 C 163 212.582031 163.746094 212.710938 164.488281 212.964844 L 164.53125 212.976562 C 164.769531 213.058594 164.902344 213.316406 164.820312 213.554688 C 164.757812 213.746094 164.578125 213.867188 164.386719 213.867188 "/><path style=" stroke:none;fill-rule:nonzero;fill:rgb(94.119263%,44.309998%,40.388489%);fill-opacity:1;" d="M 166.335938 210.265625 C 165.503906 210.265625 164.621094 209.847656 164.054688 209.441406 C 162.597656 208.402344 162.78125 207.058594 163.148438 205.878906 L 163.179688 205.78125 C 163.378906 205.164062 163.613281 204.523438 163.835938 203.90625 C 164.320312 202.570312 164.820312 201.1875 165.070312 199.851562 C 165.304688 198.589844 164.621094 197.671875 163.832031 196.605469 L 163.667969 196.386719 C 163.578125 196.265625 163.488281 196.136719 163.402344 196.011719 C 163.019531 195.460938 162.6875 194.980469 162.089844 194.828125 C 161.542969 194.6875 161.070312 194.765625 160.683594 195.058594 C 160.503906 195.238281 160.210938 195.242188 160.027344 195.0625 C 159.851562 194.886719 159.84375 194.597656 160.023438 194.417969 C 160.058594 194.382812 160.09375 194.355469 160.128906 194.328125 C 160.742188 193.867188 161.5 193.734375 162.316406 193.941406 C 163.25 194.183594 163.730469 194.878906 164.15625 195.496094 C 164.238281 195.613281 164.320312 195.730469 164.40625 195.847656 L 164.566406 196.066406 C 165.40625 197.195312 166.277344 198.363281 165.972656 200.015625 C 165.707031 201.429688 165.195312 202.847656 164.699219 204.214844 C 164.46875 204.855469 164.25 205.457031 164.054688 206.066406 L 164.023438 206.160156 C 163.613281 207.460938 163.757812 208.105469 164.589844 208.699219 C 165.035156 209.019531 165.773438 209.371094 166.402344 209.351562 C 166.652344 209.335938 166.871094 209.535156 166.878906 209.789062 C 166.890625 210.039062 166.695312 210.253906 166.441406 210.265625 C 166.40625 210.265625 166.371094 210.265625 166.335938 210.265625 "/><path style=" stroke:none;fill-rule:nonzero;fill:rgb(94.119263%,44.309998%,40.388489%);fill-opacity:1;" d="M 164.339844 213.855469 C 164.144531 213.855469 163.960938 213.726562 163.902344 213.527344 C 163.832031 213.285156 163.96875 213.03125 164.210938 212.960938 L 164.347656 212.917969 C 164.601562 212.835938 164.867188 212.75 165.128906 212.660156 C 165.367188 212.574219 165.628906 212.695312 165.714844 212.9375 C 165.800781 213.171875 165.675781 213.433594 165.4375 213.519531 C 165.164062 213.613281 164.894531 213.703125 164.621094 213.789062 L 164.472656 213.835938 C 164.429688 213.847656 164.386719 213.855469 164.339844 213.855469 "/><path style=" stroke:none;fill-rule:nonzero;fill:rgb(94.119263%,44.309998%,40.388489%);fill-opacity:1;" d="M 177.457031 220.433594 C 176.027344 220.433594 174.785156 219.9375 173.761719 218.941406 C 172.84375 218.050781 172.785156 216.894531 172.804688 215.785156 C 172.804688 215.652344 172.808594 215.507812 172.808594 215.367188 C 172.8125 215.226562 172.816406 215.085938 172.816406 214.945312 L 172.816406 214.488281 C 172.820312 213.601562 172.824219 212.761719 172.667969 211.917969 C 172.625 211.664062 172.605469 211.433594 172.589844 211.207031 C 172.566406 210.898438 172.542969 210.601562 172.445312 210.308594 C 172.421875 210.234375 172.398438 210.164062 172.371094 210.09375 L 172.335938 210.003906 C 172.25 209.765625 172.371094 209.503906 172.609375 209.417969 C 172.847656 209.332031 173.113281 209.453125 173.199219 209.691406 L 173.230469 209.773438 C 173.261719 209.855469 173.292969 209.941406 173.320312 210.027344 C 173.453125 210.421875 173.480469 210.789062 173.503906 211.140625 C 173.519531 211.351562 173.535156 211.550781 173.574219 211.753906 C 173.742188 212.679688 173.738281 213.601562 173.734375 214.496094 L 173.734375 214.945312 C 173.734375 215.089844 173.730469 215.234375 173.726562 215.378906 C 173.726562 215.519531 173.722656 215.65625 173.722656 215.792969 C 173.707031 216.785156 173.746094 217.648438 174.402344 218.289062 C 175.730469 219.578125 177.441406 219.855469 179.640625 219.140625 C 180.078125 218.996094 180.539062 218.8125 181.007812 218.597656 C 181.5 218.371094 182.03125 218.09375 182.625 217.75 C 182.84375 217.625 183.125 217.699219 183.25 217.914062 C 183.378906 218.132812 183.304688 218.414062 183.085938 218.539062 C 182.464844 218.898438 181.910156 219.1875 181.390625 219.429688 C 180.890625 219.660156 180.398438 219.855469 179.925781 220.007812 C 179.046875 220.292969 178.226562 220.433594 177.457031 220.433594 "/><path style=" stroke:none;fill-rule:nonzero;fill:rgb(94.119263%,44.309998%,40.388489%);fill-opacity:1;" d="M 172.769531 210.300781 C 172.605469 210.300781 172.449219 210.21875 172.367188 210.066406 C 172.242188 209.847656 172.324219 209.570312 172.546875 209.445312 C 173.0625 209.164062 173.652344 208.984375 174.125 208.84375 C 174.515625 208.726562 174.839844 208.636719 175.144531 208.5625 C 175.816406 208.394531 176.433594 208.296875 177.039062 208.261719 C 177.289062 208.246094 177.507812 208.433594 177.527344 208.6875 C 177.542969 208.941406 177.347656 209.15625 177.09375 209.171875 C 176.546875 209.207031 175.980469 209.296875 175.363281 209.449219 C 175.074219 209.519531 174.765625 209.605469 174.390625 209.71875 C 173.839844 209.882812 173.390625 210.027344 172.992188 210.246094 C 172.921875 210.285156 172.84375 210.300781 172.769531 210.300781 "/><path style=" stroke:none;fill-rule:nonzero;fill:rgb(94.119263%,44.309998%,40.388489%);fill-opacity:1;" d="M 180.875 217.058594 C 180.644531 217.058594 180.449219 216.890625 180.417969 216.660156 C 180.335938 216.015625 180.226562 215.492188 180.082031 215.015625 C 180.003906 214.761719 179.933594 214.503906 179.859375 214.242188 C 179.542969 213.128906 179.214844 211.972656 178.574219 211.085938 C 178.359375 210.792969 178.117188 210.511719 177.859375 210.21875 C 177.683594 210.015625 177.511719 209.816406 177.34375 209.609375 C 177.191406 209.421875 177.007812 209.25 176.785156 209.078125 C 176.585938 208.921875 176.550781 208.636719 176.703125 208.4375 C 176.859375 208.238281 177.148438 208.203125 177.347656 208.355469 C 177.628906 208.570312 177.859375 208.792969 178.058594 209.035156 C 178.21875 209.234375 178.386719 209.425781 178.554688 209.621094 C 178.8125 209.917969 179.078125 210.222656 179.320312 210.550781 C 180.054688 211.570312 180.40625 212.804688 180.742188 213.996094 C 180.816406 214.25 180.886719 214.503906 180.960938 214.75 C 181.121094 215.277344 181.238281 215.847656 181.328125 216.542969 C 181.363281 216.792969 181.183594 217.023438 180.933594 217.054688 C 180.914062 217.054688 180.894531 217.058594 180.875 217.058594 "/><path style=" stroke:none;fill-rule:nonzero;fill:rgb(94.119263%,44.309998%,40.388489%);fill-opacity:1;" d="M 175.242188 208.046875 C 175.167969 208.046875 175.09375 208.027344 175.019531 207.992188 C 174.96875 207.960938 174.917969 207.929688 174.867188 207.894531 C 174.65625 207.753906 174.597656 207.472656 174.738281 207.261719 C 174.878906 207.050781 175.164062 206.996094 175.375 207.136719 C 175.40625 207.15625 175.433594 207.175781 175.46875 207.191406 C 175.6875 207.3125 175.769531 207.59375 175.644531 207.8125 C 175.5625 207.964844 175.40625 208.046875 175.242188 208.046875 "/><path style=" stroke:none;fill-rule:nonzero;fill:rgb(94.119263%,44.309998%,40.388489%);fill-opacity:1;" d="M 182.933594 218.550781 Z M 182.964844 218.582031 Z M 183.304688 218.734375 C 183.171875 218.734375 183.042969 218.679688 182.953125 218.574219 C 182.941406 218.566406 182.925781 218.5625 182.910156 218.554688 C 182.863281 218.539062 182.8125 218.519531 182.769531 218.496094 C 182.660156 218.453125 182.542969 218.398438 182.421875 218.324219 C 182.015625 218.078125 181.699219 217.875 181.402344 217.660156 C 181.171875 217.496094 180.972656 217.3125 180.777344 217.132812 L 180.660156 217.023438 C 180.632812 216.996094 180.617188 216.980469 180.605469 216.972656 C 180.410156 216.816406 180.367188 216.527344 180.515625 216.332031 C 180.667969 216.136719 180.9375 216.085938 181.140625 216.230469 C 181.195312 216.269531 181.25 216.320312 181.296875 216.363281 L 181.402344 216.464844 C 181.582031 216.628906 181.753906 216.789062 181.9375 216.917969 C 182.214844 217.117188 182.511719 217.3125 182.902344 217.542969 C 182.976562 217.589844 183.046875 217.621094 183.136719 217.660156 C 183.15625 217.667969 183.175781 217.675781 183.191406 217.6875 C 183.203125 217.691406 183.21875 217.695312 183.234375 217.703125 C 183.332031 217.742188 183.527344 217.816406 183.671875 218.003906 C 183.820312 218.207031 183.78125 218.492188 183.578125 218.644531 C 183.496094 218.703125 183.398438 218.734375 183.304688 218.734375 "/></g></svg>